<svg width="256" height="268" viewBox="0 0 256 268" fill="none" xmlns="http://www.w3.org/2000/svg">
<g filter="url(#filter0_i_52_179)">
<path d="M128 6L238.851 70V198L128 262L17.1488 198V70L128 6Z" fill="#21496C"/>
</g>
<path d="M129.25 3.83494L128 3.11325L126.75 3.83494L15.8988 67.8349L14.6488 68.5566V70V198V199.443L15.8988 200.165L126.75 264.165L128 264.887L129.25 264.165L240.101 200.165L241.351 199.443V198V70V68.5566L240.101 67.8349L129.25 3.83494Z" stroke="#F5993D" stroke-width="5"/>
<path d="M75 79H94.8635C100.333 79 104.651 80.0169 107.818 82.0509C110.985 83.9718 113.311 87.3616 114.799 92.2203C116.286 97.0791 117.03 103.802 117.03 112.39V157.136C117.03 165.497 116.334 171.994 114.943 176.627C113.551 181.147 111.272 184.367 108.106 186.288C104.939 188.096 100.549 189 94.9354 189H75V79ZM94.4316 170.186C97.5024 170.186 99.8054 169.904 101.341 169.339C102.924 168.661 104.052 167.418 104.723 165.61C105.443 163.802 105.803 160.977 105.803 157.136V111.881C105.803 106.684 104.915 103.068 103.14 101.034C101.413 98.887 98.6298 97.8136 94.7915 97.8136H86.2272V170.186H94.4316ZM126.095 79H142.072L153.587 157.644L164.958 79H180V189H169.852V107.644H169.636L157.834 189H148.837L136.675 107.644H136.387V189H126.095V79Z" fill="url(#paint0_radial_52_179)"/>
<defs>
<filter id="filter0_i_52_179" x="12.1488" y="0.22644" width="236.702" height="272.547" filterUnits="userSpaceOnUse" color-interpolation-filters="sRGB">
<feFlood flood-opacity="0" result="BackgroundImageFix"/>
<feBlend mode="normal" in="SourceGraphic" in2="BackgroundImageFix" result="shape"/>
<feColorMatrix in="SourceAlpha" type="matrix" values="0 0 0 0 0 0 0 0 0 0 0 0 0 0 0 0 0 0 127 0" result="hardAlpha"/>
<feOffset dx="5" dy="5"/>
<feGaussianBlur stdDeviation="20"/>
<feComposite in2="hardAlpha" operator="arithmetic" k2="-1" k3="1"/>
<feColorMatrix type="matrix" values="0 0 0 0 0.130156 0 0 0 0 0.387406 0 0 0 0 0.6125 0 0 0 1 0"/>
<feBlend mode="normal" in2="shape" result="effect1_innerShadow_52_179"/>
</filter>
<radialGradient id="paint0_radial_52_179" cx="0" cy="0" r="1" gradientUnits="userSpaceOnUse" gradientTransform="translate(127.5 134) rotate(90) scale(55 52.5)">
<stop stop-color="#FDF7DA"/>
<stop offset="1" stop-color="#E27C17"/>
</radialGradient>
</defs>
</svg>
